<?xml version="1.0" encoding="UTF-8"?>
<!DOCTYPE svg PUBLIC "-//W3C//DTD SVG 1.1//EN" "http://www.w3.org/Graphics/SVG/1.1/DTD/svg11.dtd">
<svg xmlns="http://www.w3.org/2000/svg" version="1.1" width="1024px" height="1024px" style="shape-rendering:geometricPrecision; text-rendering:geometricPrecision; image-rendering:optimizeQuality; fill-rule:evenodd; clip-rule:evenodd" xmlns:xlink="http://www.w3.org/1999/xlink">
<g><path style="opacity:0.004" fill="#385369" d="M 150.5,323.5 C 151.833,324.167 151.833,324.167 150.5,323.5 Z"/></g>
<g><path style="opacity:0.004" fill="#3a5168" d="M 153.5,323.5 C 154.833,324.167 154.833,324.167 153.5,323.5 Z"/></g>
<g><path style="opacity:0.004" fill="#38526a" d="M 158.5,323.5 C 159.833,324.167 159.833,324.167 158.5,323.5 Z"/></g>
<g><path style="opacity:0.008" fill="#395069" d="M 160.5,323.5 C 161.833,324.167 161.833,324.167 160.5,323.5 Z"/></g>
<g><path style="opacity:0.004" fill="#375069" d="M 171.5,323.5 C 172.833,324.167 172.833,324.167 171.5,323.5 Z"/></g>
<g><path style="opacity:0.004" fill="#37506a" d="M 174.5,323.5 C 175.833,324.167 175.833,324.167 174.5,323.5 Z"/></g>
<g><path style="opacity:0.004" fill="#395168" d="M 176.5,323.5 C 177.833,324.167 177.833,324.167 176.5,323.5 Z"/></g>
<g><path style="opacity:0.006" fill="#385068" d="M 178.5,324.5 C 179.251,323.427 180.251,323.26 181.5,324C 180.552,324.483 179.552,324.649 178.5,324.5 Z"/></g>
<g><path style="opacity:0.008" fill="#39526b" d="M 227.5,323.5 C 228.833,324.167 228.833,324.167 227.5,323.5 Z"/></g>
<g><path style="opacity:0.004" fill="#39536c" d="M 230.5,323.5 C 231.833,324.167 231.833,324.167 230.5,323.5 Z"/></g>
<g><path style="opacity:0.004" fill="#395267" d="M 244.5,323.5 C 245.833,324.167 245.833,324.167 244.5,323.5 Z"/></g>
<g><path style="opacity:0.004" fill="#3b5369" d="M 294.5,323.5 C 295.833,324.167 295.833,324.167 294.5,323.5 Z"/></g>
<g><path style="opacity:0.004" fill="#3c5369" d="M 300.5,323.5 C 301.833,324.167 301.833,324.167 300.5,323.5 Z"/></g>
<g><path style="opacity:0.004" fill="#3b5269" d="M 388.5,323.5 C 389.833,324.167 389.833,324.167 388.5,323.5 Z"/></g>
<g><path style="opacity:0.004" fill="#3c5068" d="M 397.5,323.5 C 398.833,324.167 398.833,324.167 397.5,323.5 Z"/></g>
<g><path style="opacity:0.004" fill="#3c5368" d="M 404.5,323.5 C 405.833,324.167 405.833,324.167 404.5,323.5 Z"/></g>
<g><path style="opacity:0.004" fill="#3c5168" d="M 412.5,323.5 C 413.833,324.167 413.833,324.167 412.5,323.5 Z"/></g>
<g><path style="opacity:0.004" fill="#395069" d="M 620.5,323.5 C 621.833,324.167 621.833,324.167 620.5,323.5 Z"/></g>
<g><path style="opacity:0.004" fill="#395268" d="M 625.5,323.5 C 626.833,324.167 626.833,324.167 625.5,323.5 Z"/></g>
<g><path style="opacity:0.004" fill="#3b536b" d="M 636.5,323.5 C 637.833,324.167 637.833,324.167 636.5,323.5 Z"/></g>
<g><path style="opacity:0.004" fill="#385168" d="M 640.5,324.5 C 640.897,323.475 641.563,323.308 642.5,324C 641.906,324.464 641.239,324.631 640.5,324.5 Z"/></g>
<g><path style="opacity:0.004" fill="#395468" d="M 657.5,323.5 C 658.833,324.167 658.833,324.167 657.5,323.5 Z"/></g>
<g><path style="opacity:0.004" fill="#39536a" d="M 662.5,323.5 C 663.833,324.167 663.833,324.167 662.5,323.5 Z"/></g>
<g><path style="opacity:0.004" fill="#395268" d="M 665.5,323.5 C 666.833,324.167 666.833,324.167 665.5,323.5 Z"/></g>
<g><path style="opacity:0.004" fill="#39516a" d="M 675.5,323.5 C 676.833,324.167 676.833,324.167 675.5,323.5 Z"/></g>
<g><path style="opacity:0.004" fill="#3a5169" d="M 678.5,323.5 C 679.833,324.167 679.833,324.167 678.5,323.5 Z"/></g>
<g><path style="opacity:0.004" fill="#3a5269" d="M 699.5,323.5 C 700.833,324.167 700.833,324.167 699.5,323.5 Z"/></g>
<g><path style="opacity:0.004" fill="#39516a" d="M 702.5,323.5 C 703.833,324.167 703.833,324.167 702.5,323.5 Z"/></g>
<g><path style="opacity:0.004" fill="#395069" d="M 706.5,323.5 C 707.833,324.167 707.833,324.167 706.5,323.5 Z"/></g>
<g><path style="opacity:0.004" fill="#384f67" d="M 766.5,323.5 C 767.833,324.167 767.833,324.167 766.5,323.5 Z"/></g>
<g><path style="opacity:0.004" fill="#374f67" d="M 777.5,323.5 C 778.833,324.167 778.833,324.167 777.5,323.5 Z"/></g>
<g><path style="opacity:0.004" fill="#385067" d="M 793.5,323.5 C 794.833,324.167 794.833,324.167 793.5,323.5 Z"/></g>
<g><path style="opacity:0.004" fill="#385168" d="M 795.5,323.5 C 796.833,324.167 796.833,324.167 795.5,323.5 Z"/></g>
<g><path style="opacity:0.004" fill="#385068" d="M 801.5,323.5 C 802.833,324.167 802.833,324.167 801.5,323.5 Z"/></g>
<g><path style="opacity:0.004" fill="#385269" d="M 803.5,323.5 C 804.833,324.167 804.833,324.167 803.5,323.5 Z"/></g>
<g><path style="opacity:0.398" fill="#355069" d="M 245.5,357.5 C 245.5,347.5 245.5,337.5 245.5,327.5C 200.167,326.167 154.833,326.167 109.5,327.5C 109.167,327.5 108.833,327.5 108.5,327.5C 131.157,326.167 154.157,325.5 177.5,325.5C 200.5,325.667 223.5,325.833 246.5,326C 246.337,336.012 246.67,346.346 247.5,357C 246.906,357.464 246.239,357.631 245.5,357.5 Z"/></g>
<g><path style="opacity:0.004" fill="#3c5266" d="M 380.5,326.5 C 379.833,325.167 379.833,325.167 380.5,326.5 Z"/></g>
<g><path style="opacity:0.41" fill="#344d65" d="M 416.5,326.5 C 405.167,326.5 393.833,326.5 382.5,326.5C 382.167,326.5 381.833,326.5 381.5,326.5C 381.783,325.711 382.283,325.044 383,324.5C 394.265,325.157 405.431,325.823 416.5,326.5 Z"/></g>
<g><path style="opacity:0.416" fill="#324f68" d="M 739.5,329.5 C 739.5,328.5 739.5,327.5 739.5,326.5C 694.5,326.5 649.5,326.5 604.5,326.5C 604.5,336.833 604.5,347.167 604.5,357.5C 620.833,357.5 637.167,357.5 653.5,357.5C 653.5,357.833 653.5,358.167 653.5,358.5C 637.042,358.536 620.375,358.536 603.5,358.5C 603.5,347.5 603.5,336.5 603.5,325.5C 649.167,325.5 694.833,325.5 740.5,325.5C 740.768,327.099 740.434,328.432 739.5,329.5 Z"/></g>
<g><path style="opacity:0.375" fill="#37556f" d="M 832.5,326.5 C 808.5,326.5 784.5,326.5 760.5,326.5C 760.5,384.167 760.5,441.833 760.5,499.5C 759.501,441.669 759.168,383.669 759.5,325.5C 784.006,325.169 808.339,325.502 832.5,326.5 Z"/></g>
<g><path style="opacity:0.982" fill="#041832" d="M 245.5,327.5 C 245.167,327.5 244.833,327.5 244.5,327.5C 244.167,327.5 243.833,327.5 243.5,327.5C 199.167,327.5 154.833,327.5 110.5,327.5C 110.182,337.083 110.515,346.583 111.5,356C 128.005,356.169 144.338,356.669 160.5,357.5C 143.5,357.5 126.5,357.5 109.5,357.5C 109.5,347.5 109.5,337.5 109.5,327.5C 154.833,326.167 200.167,326.167 245.5,327.5 Z"/></g>
<g><path style="opacity:0.987" fill="#041831" d="M 739.5,329.5 C 739.917,336.867 740.25,344.533 740.5,352.5C 739.983,354.19 739.65,355.857 739.5,357.5C 722.5,357.5 705.5,357.5 688.5,357.5C 687.833,357.5 687.5,357.167 687.5,356.5C 704.167,356.5 720.833,356.5 737.5,356.5C 737.5,346.833 737.5,337.167 737.5,327.5C 693.5,327.5 649.5,327.5 605.5,327.5C 605.5,337.167 605.5,346.833 605.5,356.5C 622.245,356.168 638.245,356.501 653.5,357.5C 637.167,357.5 620.833,357.5 604.5,357.5C 604.5,347.167 604.5,336.833 604.5,326.5C 649.5,326.5 694.5,326.5 739.5,326.5C 739.5,327.5 739.5,328.5 739.5,329.5 Z"/></g>
<g><path style="opacity:0.012" fill="#375067" d="M 741.5,326.5 C 742.833,327.167 742.833,327.167 741.5,326.5 Z"/></g>
<g><path style="opacity:0.998" fill="#163d5f" d="M 243.5,327.5 C 243.5,336.833 243.5,346.167 243.5,355.5C 226.991,355.17 210.658,355.504 194.5,356.5C 194.5,357.167 194.5,357.833 194.5,358.5C 193.501,404.664 193.168,450.997 193.5,497.5C 183.167,497.5 172.833,497.5 162.5,497.5C 163.162,450.821 162.495,404.488 160.5,358.5C 160.5,358.167 160.5,357.833 160.5,357.5C 144.338,356.669 128.005,356.169 111.5,356C 110.515,346.583 110.182,337.083 110.5,327.5C 154.833,327.5 199.167,327.5 243.5,327.5 Z"/></g>
<g><path style="opacity:0.998" fill="#163d5f" d="M 273.5,327.5 C 283.5,327.5 293.5,327.5 303.5,327.5C 303.164,350.868 303.498,372.201 304.5,391.5C 304.833,391.5 305.167,391.5 305.5,391.5C 305.926,392.528 305.926,393.861 305.5,395.5C 330.597,396.827 356.264,396.827 382.5,395.5C 383.497,373.006 383.831,350.339 383.5,327.5C 393.5,327.5 403.5,327.5 413.5,327.5C 413.5,383.833 413.5,440.167 413.5,496.5C 407.158,496.334 400.825,496.5 394.5,497C 401.013,497.172 407.347,497.672 413.5,498.5C 403.319,498.827 393.319,498.494 383.5,497.5C 383.667,473.498 383.5,449.498 383,425.5C 382.722,426.416 382.222,427.082 381.5,427.5C 380.833,427.5 380.5,427.167 380.5,426.5C 381.167,426.5 381.5,426.167 381.5,425.5C 355.672,424.502 329.672,424.169 303.5,424.5C 303.5,426.833 303.5,429.167 303.5,431.5C 303.5,453.5 303.5,475.5 303.5,497.5C 301.167,497.5 298.833,497.5 296.5,497.5C 288.946,495.998 281.28,495.665 273.5,496.5C 273.5,440.167 273.5,383.833 273.5,327.5 Z"/></g>
<g><path style="opacity:0.004" fill="#335069" d="M 850.5,327.5 C 851.833,328.167 851.833,328.167 850.5,327.5 Z"/></g>
<g><path style="opacity:0.996" fill="#112a46" d="M 839.5,327.5 C 844.457,327.266 849.123,328.266 853.5,330.5C 853.918,331.222 854.584,331.722 855.5,332C 849.43,331.318 843.43,329.984 837.5,328C 838.094,327.536 838.761,327.369 839.5,327.5 Z"/></g>
<g><path style="opacity:0.006" fill="#364e67" d="M 856.5,330.5 C 856.897,329.475 857.563,329.308 858.5,330C 857.906,330.464 857.239,330.631 856.5,330.5 Z"/></g>
<g><path style="opacity:0.004" fill="#395166" d="M 873.5,338.5 C 872.833,337.167 872.833,337.167 873.5,338.5 Z"/></g>
<g><path style="opacity:0.004" fill="#37536a" d="M 873.5,338.5 C 874.833,339.167 874.833,339.167 873.5,338.5 Z"/></g>
<g><path style="opacity:0.004" fill="#364f6a" d="M 306.5,340.5 C 307.833,341.167 307.833,341.167 306.5,340.5 Z"/></g>
<g><path style="opacity:0.004" fill="#375269" d="M 876.5,340.5 C 877.833,341.167 877.833,341.167 876.5,340.5 Z"/></g>
<g><path style="opacity:0.004" fill="#35526a" d="M 267.5,341.5 C 268.833,342.167 268.833,342.167 267.5,341.5 Z"/></g>
<g><path style="opacity:0.986" fill="#041a35" d="M 270.5,326.5 C 281.833,326.5 293.167,326.5 304.5,326.5C 304.5,348.167 304.5,369.833 304.5,391.5C 303.498,372.201 303.164,350.868 303.5,327.5C 293.5,327.5 283.5,327.5 273.5,327.5C 273.167,327.5 272.833,327.5 272.5,327.5C 272.167,327.5 271.833,327.5 271.5,327.5C 270.833,327.5 270.5,327.833 270.5,328.5C 269.167,327.833 269.167,327.167 270.5,326.5 Z"/></g>
<g><path style="opacity:0.027" fill="#425c6e" d="M 108.5,327.5 C 108.833,327.5 109.167,327.5 109.5,327.5C 109.5,337.5 109.5,347.5 109.5,357.5C 108.761,357.631 108.094,357.464 107.5,357C 108.486,347.25 108.819,337.416 108.5,327.5 Z"/></g>
<g><path style="opacity:0.008" fill="#374f6a" d="M 880.5,343.5 C 881.833,344.167 881.833,344.167 880.5,343.5 Z"/></g>
<g><path style="opacity:0.004" fill="#375169" d="M 882.5,345.5 C 883.833,346.167 883.833,346.167 882.5,345.5 Z"/></g>
<g><path style="opacity:0.992" fill="#132a46" d="M 858.5,332.5 C 863.651,334.576 868.651,336.91 873.5,339.5C 874.29,340.401 875.29,341.068 876.5,341.5C 877.436,342.974 878.77,343.974 880.5,344.5C 880.833,345.5 881.5,346.167 882.5,346.5C 884.167,348.833 886.167,350.833 888.5,352.5C 888.833,353.5 889.5,354.167 890.5,354.5C 899.426,365.353 905.426,377.687 908.5,391.5C 908.657,392.873 908.49,394.207 908,395.5C 901.465,365.96 884.298,345.127 856.5,333C 857.094,332.536 857.761,332.369 858.5,332.5 Z"/></g>
<g><path style="opacity:0.004" fill="#334d67" d="M 601.5,347.5 C 602.525,347.897 602.692,348.563 602,349.5C 601.536,348.906 601.369,348.239 601.5,347.5 Z"/></g>
<g><path style="opacity:0.004" fill="#33516c" d="M 267.5,349.5 C 268.525,349.897 268.692,350.563 268,351.5C 267.536,350.906 267.369,350.239 267.5,349.5 Z"/></g>
<g><path style="opacity:0.004" fill="#385468" d="M 888.5,351.5 C 889.833,352.167 889.833,352.167 888.5,351.5 Z"/></g>
<g><path style="opacity:0.008" fill="#35526c" d="M 263.5,352.5 C 264.833,353.167 264.833,353.167 263.5,352.5 Z"/></g>
<g><path style="opacity:0.004" fill="#31506d" d="M 740.5,352.5 C 741.833,353.167 741.833,353.167 740.5,352.5 Z"/></g>
<g><path style="opacity:0.004" fill="#38516c" d="M 890.5,353.5 C 891.833,354.167 891.833,354.167 890.5,353.5 Z"/></g>
<g><path style="opacity:0.976" fill="#103152" d="M 243.5,327.5 C 243.833,327.5 244.167,327.5 244.5,327.5C 244.5,337.167 244.5,346.833 244.5,356.5C 227.833,356.5 211.167,356.5 194.5,356.5C 210.658,355.504 226.991,355.17 243.5,355.5C 243.5,346.167 243.5,336.833 243.5,327.5 Z"/></g>
<g><path style="opacity:0.114" fill="#335572" d="M 109.5,357.5 C 126.5,357.5 143.5,357.5 160.5,357.5C 160.5,357.833 160.5,358.167 160.5,358.5C 143.589,358.175 126.756,358.508 110,359.5C 109.536,358.906 109.369,358.239 109.5,357.5 Z"/></g>
<g><path style="opacity:0.111" fill="#335573" d="M 195.5,358.5 C 211.992,357.503 228.658,357.17 245.5,357.5C 229.961,358.181 214.294,358.848 198.5,359.5C 197.583,358.873 196.583,358.539 195.5,358.5 Z"/></g>
<g><path style="opacity:0.1" fill="#325672" d="M 688.5,358.5 C 688.5,358.167 688.5,357.833 688.5,357.5C 705.5,357.5 722.5,357.5 739.5,357.5C 738.828,358.267 737.995,358.934 737,359.5C 720.764,358.771 704.597,358.437 688.5,358.5 Z"/></g>
<g><path style="opacity:0.004" fill="#375366" d="M 107.5,358.5 C 108.833,359.167 108.833,359.167 107.5,358.5 Z"/></g>
<g><path style="opacity:0.627" fill="#233e58" d="M 270.5,326.5 C 276.157,325.834 281.99,325.501 288,325.5C 294.603,325.372 301.103,325.872 307.5,327C 305.518,348.268 304.851,369.768 305.5,391.5C 305.167,391.5 304.833,391.5 304.5,391.5C 304.5,369.833 304.5,348.167 304.5,326.5C 293.167,326.5 281.833,326.5 270.5,326.5 Z"/></g>
<g><path style="opacity:0.83" fill="#102640" d="M 380.5,326.5 C 380.833,326.5 381.167,326.5 381.5,326.5C 381.833,326.5 382.167,326.5 382.5,326.5C 382.5,349.5 382.5,372.5 382.5,395.5C 381.833,395.5 381.167,395.5 380.5,395.5C 381.833,372.5 381.833,349.5 380.5,326.5 Z"/></g>
<g><path style="opacity:0.004" fill="#38536b" d="M 899.5,365.5 C 900.833,366.167 900.833,366.167 899.5,365.5 Z"/></g>
<g><path style="opacity:0.004" fill="#355166" d="M 525.5,368.5 C 525.897,367.475 526.563,367.308 527.5,368C 526.906,368.464 526.239,368.631 525.5,368.5 Z"/></g>
<g><path style="opacity:0.943" fill="#142c49" d="M 382.5,326.5 C 393.833,326.5 405.167,326.5 416.5,326.5C 417.734,383.479 417.734,441.145 416.5,499.5C 416.657,498.127 416.49,496.793 416,495.5C 415.768,496.737 415.268,497.737 414.5,498.5C 414.832,441.331 414.499,384.331 413.5,327.5C 403.5,327.5 393.5,327.5 383.5,327.5C 383.831,350.339 383.497,373.006 382.5,395.5C 382.5,372.5 382.5,349.5 382.5,326.5 Z"/></g>
<g><path style="opacity:0.004" fill="#3a506a" d="M 519.5,369.5 C 520.833,370.167 520.833,370.167 519.5,369.5 Z"/></g>
<g><path style="opacity:0.941" fill="#071c36" d="M 527.5,369.5 C 535.833,369.5 544.167,369.5 552.5,369.5C 552.5,370.167 552.5,370.833 552.5,371.5C 543.161,371.666 533.827,371.5 524.5,371C 525.737,370.768 526.737,370.268 527.5,369.5 Z"/></g>
<g><path style="opacity:0.998" fill="#173e60" d="M 527.5,369.5 C 526.737,370.268 525.737,370.768 524.5,371C 533.827,371.5 543.161,371.666 552.5,371.5C 566.327,386.161 580.661,400.327 595.5,414C 581.5,428 567.5,442 553.5,456C 544.5,456.667 535.5,456.667 526.5,456C 535.67,446.497 545.17,437.33 555,428.5C 555.519,426.511 554.686,425.511 552.5,425.5C 518.671,424.502 484.671,424.168 450.5,424.5C 450.822,418.642 450.489,412.975 449.5,407.5C 449.5,406.167 449.5,404.833 449.5,403.5C 484.502,403.667 519.502,403.5 554.5,403C 519.168,402.5 483.835,402.333 448.5,402.5C 448.5,404.167 448.5,405.833 448.5,407.5C 447.539,405.735 447.205,403.735 447.5,401.5C 482.671,401.832 517.671,401.498 552.5,400.5C 553.423,401.303 554.423,401.47 555.5,401C 546.667,392.167 537.833,383.333 529,374.5C 528.536,375.094 528.369,375.761 528.5,376.5C 527.5,375.833 526.5,375.167 525.5,374.5C 523.666,372.495 521.999,370.328 520.5,368C 522.582,368.932 524.915,369.432 527.5,369.5 Z"/></g>
<g><path style="opacity:0.914" fill="#142c47" d="M 552.5,369.5 C 555.167,371.833 557.833,374.167 560.5,376.5C 562.833,379.5 565.5,382.167 568.5,384.5C 570.833,387.5 573.5,390.167 576.5,392.5C 578.833,395.5 581.5,398.167 584.5,400.5C 587.167,403.833 590.167,406.833 593.5,409.5C 594.458,410.962 595.624,412.295 597,413.5C 597.667,414.167 597.667,414.833 597,415.5C 591.963,420.369 587.13,425.369 582.5,430.5C 575.833,436.5 569.5,442.833 563.5,449.5C 559.834,452.997 556.001,456.331 552,459.5C 541.512,458.691 531.346,458.358 521.5,458.5C 530.886,448.112 540.886,438.446 551.5,429.5C 553.382,428.779 553.715,427.779 552.5,426.5C 552.5,426.167 552.5,425.833 552.5,425.5C 554.686,425.511 555.519,426.511 555,428.5C 545.17,437.33 535.67,446.497 526.5,456C 535.5,456.667 544.5,456.667 553.5,456C 567.5,442 581.5,428 595.5,414C 580.661,400.327 566.327,386.161 552.5,371.5C 552.5,370.833 552.5,370.167 552.5,369.5 Z"/></g>
<g><path style="opacity:0.012" fill="#33516b" d="M 525.5,374.5 C 524.833,375.167 524.833,375.167 525.5,374.5 Z"/></g>
<g><path style="opacity:0.012" fill="#37536e" d="M 560.5,375.5 C 561.833,376.167 561.833,376.167 560.5,375.5 Z"/></g>
<g><path style="opacity:0.995" fill="#142a45" d="M 552.5,400.5 C 551.5,399.833 550.5,399.167 549.5,398.5C 547.167,395.5 544.5,392.833 541.5,390.5C 537.167,385.833 532.833,381.167 528.5,376.5C 528.369,375.761 528.536,375.094 529,374.5C 537.833,383.333 546.667,392.167 555.5,401C 554.423,401.47 553.423,401.303 552.5,400.5 Z"/></g>
<g><path style="opacity:0.008" fill="#34526a" d="M 568.5,383.5 C 569.833,384.167 569.833,384.167 568.5,383.5 Z"/></g>
<g><path style="opacity:0.984" fill="#123353" d="M 194.5,358.5 C 194.5,405.167 194.5,451.833 194.5,498.5C 183.833,498.5 173.167,498.5 162.5,498.5C 162.5,498.167 162.5,497.833 162.5,497.5C 172.833,497.5 183.167,497.5 193.5,497.5C 193.168,450.997 193.501,404.664 194.5,358.5 Z"/></g>
<g><path style="opacity:0.004" fill="#32516b" d="M 651.5,387.5 C 652.833,388.167 652.833,388.167 651.5,387.5 Z"/></g>
<g><path style="opacity:0.976" fill="#1a476a" d="M 413.5,327.5 C 414.499,384.331 414.832,441.331 414.5,498.5C 414.167,498.5 413.833,498.5 413.5,498.5C 407.347,497.672 401.013,497.172 394.5,497C 400.825,496.5 407.158,496.334 413.5,496.5C 413.5,440.167 413.5,383.833 413.5,327.5 Z"/></g>
<g><path style="opacity:0.004" fill="#30516c" d="M 651.5,389.5 C 652.833,390.167 652.833,390.167 651.5,389.5 Z"/></g>
<g><path style="opacity:0.004" fill="#304d68" d="M 541.5,390.5 C 540.833,391.167 540.833,391.167 541.5,390.5 Z"/></g>
<g><path style="opacity:0.004" fill="#35506d" d="M 576.5,391.5 C 577.833,392.167 577.833,392.167 576.5,391.5 Z"/></g>
<g><path style="opacity:0.004" fill="#2f516b" d="M 379.5,392.5 C 380.833,393.167 380.833,393.167 379.5,392.5 Z"/></g>
<g><path style="opacity:0.989" fill="#010f28" d="M 380.5,395.5 C 381.167,395.5 381.833,395.5 382.5,395.5C 356.264,396.827 330.597,396.827 305.5,395.5C 330.334,395.458 355.334,395.458 380.5,395.5 Z"/></g>
<g><path style="opacity:0.004" fill="#32526f" d="M 267.5,397.5 C 268.833,398.167 268.833,398.167 267.5,397.5 Z"/></g>
<g><path style="opacity:0.004" fill="#2e4f6a" d="M 549.5,398.5 C 548.833,399.167 548.833,399.167 549.5,398.5 Z"/></g>
<g><path style="opacity:0.024" fill="#33506c" d="M 448.5,399.5 C 449.833,400.167 449.833,400.167 448.5,399.5 Z"/></g>
<g><path style="opacity:0.012" fill="#33526c" d="M 450.5,400.5 C 450.897,399.475 451.563,399.308 452.5,400C 451.906,400.464 451.239,400.631 450.5,400.5 Z"/></g>
<g><path style="opacity:0.014" fill="#33526e" d="M 453.5,400.5 C 453.897,399.475 454.563,399.308 455.5,400C 454.906,400.464 454.239,400.631 453.5,400.5 Z"/></g>
<g><path style="opacity:0.007" fill="#35536f" d="M 461.5,400.5 C 462.601,399.402 463.934,399.235 465.5,400C 464.207,400.49 462.873,400.657 461.5,400.5 Z"/></g>
<g><path style="opacity:0.008" fill="#34546e" d="M 466.5,399.5 C 467.833,400.167 467.833,400.167 466.5,399.5 Z"/></g>
<g><path style="opacity:0.006" fill="#35546f" d="M 468.5,400.5 C 469.601,399.402 470.934,399.235 472.5,400C 471.207,400.49 469.873,400.657 468.5,400.5 Z"/></g>
<g><path style="opacity:0.007" fill="#34536e" d="M 477.5,400.5 C 478.946,399.387 480.613,399.22 482.5,400C 480.866,400.494 479.199,400.66 477.5,400.5 Z"/></g>
<g><path style="opacity:0.008" fill="#34536e" d="M 485.5,400.5 C 486.946,399.387 488.613,399.22 490.5,400C 488.866,400.494 487.199,400.66 485.5,400.5 Z"/></g>
<g><path style="opacity:0.01" fill="#34536d" d="M 492.5,400.5 C 494.288,399.378 496.288,399.211 498.5,400C 496.527,400.495 494.527,400.662 492.5,400.5 Z"/></g>
<g><path style="opacity:0.006" fill="#32526e" d="M 501.5,400.5 C 501.897,399.475 502.563,399.308 503.5,400C 502.906,400.464 502.239,400.631 501.5,400.5 Z"/></g>
<g><path style="opacity:0.005" fill="#34536f" d="M 504.5,400.5 C 505.251,399.427 506.251,399.26 507.5,400C 506.552,400.483 505.552,400.649 504.5,400.5 Z"/></g>
<g><path style="opacity:0.008" fill="#34546e" d="M 509.5,400.5 C 509.897,399.475 510.563,399.308 511.5,400C 510.906,400.464 510.239,400.631 509.5,400.5 Z"/></g>
<g><path style="opacity:0.004" fill="#34516e" d="M 512.5,399.5 C 513.833,400.167 513.833,400.167 512.5,399.5 Z"/></g>
<g><path style="opacity:0.004" fill="#35526e" d="M 520.5,400.5 C 520.897,399.475 521.563,399.308 522.5,400C 521.906,400.464 521.239,400.631 520.5,400.5 Z"/></g>
<g><path style="opacity:0.004" fill="#32536f" d="M 528.5,400.5 C 529.251,399.427 530.251,399.26 531.5,400C 530.552,400.483 529.552,400.649 528.5,400.5 Z"/></g>
<g><path style="opacity:0.006" fill="#33526d" d="M 536.5,400.5 C 537.601,399.402 538.934,399.235 540.5,400C 539.207,400.49 537.873,400.657 536.5,400.5 Z"/></g>
<g><path style="opacity:0.004" fill="#31526d" d="M 541.5,400.5 C 541.897,399.475 542.563,399.308 543.5,400C 542.906,400.464 542.239,400.631 541.5,400.5 Z"/></g>
<g><path style="opacity:0.004" fill="#335168" d="M 584.5,399.5 C 585.833,400.167 585.833,400.167 584.5,399.5 Z"/></g>
<g><path style="opacity:0.004" fill="#32506c" d="M 651.5,403.5 C 652.833,404.167 652.833,404.167 651.5,403.5 Z"/></g>
<g><path style="opacity:0.973" fill="#03132b" d="M 449.5,407.5 C 449.5,413.5 449.5,419.5 449.5,425.5C 483.833,425.5 518.167,425.5 552.5,425.5C 552.5,425.833 552.5,426.167 552.5,426.5C 517.833,426.5 483.167,426.5 448.5,426.5C 448.392,420.415 448.392,414.082 448.5,407.5C 448.5,405.833 448.5,404.167 448.5,402.5C 483.835,402.333 519.168,402.5 554.5,403C 519.502,403.5 484.502,403.667 449.5,403.5C 449.5,404.833 449.5,406.167 449.5,407.5 Z"/></g>
<g><path style="opacity:0.008" fill="#32546e" d="M 267.5,405.5 C 268.833,406.167 268.833,406.167 267.5,405.5 Z"/></g>
<g><path style="opacity:0.004" fill="#30526b" d="M 651.5,405.5 C 652.525,405.897 652.692,406.563 652,407.5C 651.536,406.906 651.369,406.239 651.5,405.5 Z"/></g>
<g><path style="opacity:0.004" fill="#33506d" d="M 267.5,408.5 C 268.833,409.167 268.833,409.167 267.5,408.5 Z"/></g>
<g><path style="opacity:0.004" fill="#34536b" d="M 593.5,409.5 C 593.897,408.475 594.563,408.308 595.5,409C 594.906,409.464 594.239,409.631 593.5,409.5 Z"/></g>
<g><path style="opacity:0.004" fill="#34536e" d="M 267.5,411.5 C 268.833,412.167 268.833,412.167 267.5,411.5 Z"/></g>
<g><path style="opacity:0.004" fill="#34526c" d="M 651.5,411.5 C 652.833,412.167 652.833,412.167 651.5,411.5 Z"/></g>
<g><path style="opacity:0.004" fill="#33516d" d="M 267.5,413.5 C 268.525,413.897 268.692,414.563 268,415.5C 267.536,414.906 267.369,414.239 267.5,413.5 Z"/></g>
<g><path style="opacity:0.004" fill="#32516d" d="M 651.5,413.5 C 652.525,413.897 652.692,414.563 652,415.5C 651.536,414.906 651.369,414.239 651.5,413.5 Z"/></g>
<g><path style="opacity:0.985" fill="#021630" d="M 686.5,358.5 C 687.499,405.33 687.832,452.33 687.5,499.5C 676.5,499.5 665.5,499.5 654.5,499.5C 654.333,452.499 654.5,405.499 655,358.5C 655.5,405.165 655.667,451.832 655.5,498.5C 665.833,498.5 676.167,498.5 686.5,498.5C 686.5,451.833 686.5,405.167 686.5,358.5 Z"/></g>
<g><path style="opacity:1" fill="#112841" d="M 910.5,402.5 C 911.958,411.985 911.625,421.318 909.5,430.5C 909.5,428.833 909.5,427.167 909.5,425.5C 909.175,417.648 909.508,409.982 910.5,402.5 Z"/></g>
<g><path style="opacity:0.004" fill="#33526e" d="M 651.5,417.5 C 652.833,418.167 652.833,418.167 651.5,417.5 Z"/></g>
<g><path style="opacity:0.004" fill="#32536f" d="M 267.5,422.5 C 268.833,423.167 268.833,423.167 267.5,422.5 Z"/></g>
<g><path style="opacity:0.99" fill="#021028" d="M 832.5,326.5 C 833.167,326.5 833.833,326.5 834.5,326.5C 810.339,327.498 786.006,327.831 761.5,327.5C 761.5,384.5 761.5,441.5 761.5,498.5C 763.833,498.5 766.167,498.5 768.5,498.5C 789.673,498.169 810.673,498.503 831.5,499.5C 807.833,499.5 784.167,499.5 760.5,499.5C 760.5,441.833 760.5,384.167 760.5,326.5C 784.5,326.5 808.5,326.5 832.5,326.5 Z"/></g>
<g><path style="opacity:0.993" fill="#0c2a4b" d="M 381.5,425.5 C 355.995,425.169 330.661,425.502 305.5,426.5C 305.5,428.167 305.5,429.833 305.5,431.5C 305.167,431.5 304.833,431.5 304.5,431.5C 304.167,431.5 303.833,431.5 303.5,431.5C 303.5,429.167 303.5,426.833 303.5,424.5C 329.672,424.169 355.672,424.502 381.5,425.5 Z"/></g>
<g><path style="opacity:0.985" fill="#0f2f50" d="M 449.5,407.5 C 450.489,412.975 450.822,418.642 450.5,424.5C 484.671,424.168 518.671,424.502 552.5,425.5C 518.167,425.5 483.833,425.5 449.5,425.5C 449.5,419.5 449.5,413.5 449.5,407.5 Z"/></g>
<g><path style="opacity:0.968" fill="#172d46" d="M 305.5,426.5 C 330.661,425.502 355.995,425.169 381.5,425.5C 381.5,426.167 381.167,426.5 380.5,426.5C 354.784,427.434 329.784,427.434 305.5,426.5 Z"/></g>
<g><path style="opacity:0.99" fill="#1a4669" d="M 272.5,327.5 C 272.833,327.5 273.167,327.5 273.5,327.5C 273.5,383.833 273.5,440.167 273.5,496.5C 281.28,495.665 288.946,495.998 296.5,497.5C 288.5,497.5 280.5,497.5 272.5,497.5C 272.5,440.833 272.5,384.167 272.5,327.5 Z"/></g>
<g><path style="opacity:0.108" fill="#385973" d="M 448.5,426.5 C 483.167,426.5 517.833,426.5 552.5,426.5C 553.715,427.779 553.382,428.779 551.5,429.5C 517.345,427.835 483.012,426.835 448.5,426.5 Z"/></g>
<g><path style="opacity:0.004" fill="#32536d" d="M 651.5,427.5 C 652.833,428.167 652.833,428.167 651.5,427.5 Z"/></g>
<g><path style="opacity:0.004" fill="#33526e" d="M 306.5,428.5 C 307.833,429.167 307.833,429.167 306.5,428.5 Z"/></g>
<g><path style="opacity:0.004" fill="#33536e" d="M 312.5,428.5 C 313.833,429.167 313.833,429.167 312.5,428.5 Z"/></g>
<g><path style="opacity:0.004" fill="#32546c" d="M 328.5,428.5 C 329.833,429.167 329.833,429.167 328.5,428.5 Z"/></g>
<g><path style="opacity:0.004" fill="#33526f" d="M 336.5,428.5 C 337.833,429.167 337.833,429.167 336.5,428.5 Z"/></g>
<g><path style="opacity:0.012" fill="#32516d" d="M 344.5,428.5 C 345.833,429.167 345.833,429.167 344.5,428.5 Z"/></g>
<g><path style="opacity:0.004" fill="#33536e" d="M 352.5,428.5 C 353.833,429.167 353.833,429.167 352.5,428.5 Z"/></g>
<g><path style="opacity:0.004" fill="#33536e" d="M 360.5,428.5 C 361.833,429.167 361.833,429.167 360.5,428.5 Z"/></g>
<g><path style="opacity:0.004" fill="#32536c" d="M 376.5,428.5 C 377.833,429.167 377.833,429.167 376.5,428.5 Z"/></g>
<g><path style="opacity:0.008" fill="#31516d" d="M 378.5,428.5 C 380.646,428.696 380.812,429.696 379,431.5C 378.517,430.552 378.351,429.552 378.5,428.5 Z"/></g>
<g><path style="opacity:0.01" fill="#34536d" d="M 448.5,428.5 C 449.525,428.897 449.692,429.563 449,430.5C 448.536,429.906 448.369,429.239 448.5,428.5 Z"/></g>
<g><path style="opacity:0.006" fill="#35546f" d="M 456.5,429.5 C 456.897,428.475 457.563,428.308 458.5,429C 457.906,429.464 457.239,429.631 456.5,429.5 Z"/></g>
<g><path style="opacity:0.004" fill="#35556e" d="M 462.5,428.5 C 463.833,429.167 463.833,429.167 462.5,428.5 Z"/></g>
<g><path style="opacity:0.005" fill="#34546e" d="M 470.5,429.5 C 471.251,428.427 472.251,428.26 473.5,429C 472.552,429.483 471.552,429.649 470.5,429.5 Z"/></g>
<g><path style="opacity:0.008" fill="#36576f" d="M 480.5,428.5 C 481.833,429.167 481.833,429.167 480.5,428.5 Z"/></g>
<g><path style="opacity:0.005" fill="#34546e" d="M 495.5,429.5 C 496.601,428.402 497.934,428.235 499.5,429C 498.436,430.511 497.103,430.677 495.5,429.5 Z"/></g>
<g><path style="opacity:0.004" fill="#34526e" d="M 506.5,428.5 C 507.833,429.167 507.833,429.167 506.5,428.5 Z"/></g>
<g><path style="opacity:0.008" fill="#32536e" d="M 511.5,429.5 C 511.897,428.475 512.563,428.308 513.5,429C 512.906,429.464 512.239,429.631 511.5,429.5 Z"/></g>
<g><path style="opacity:0.004" fill="#32536e" d="M 516.5,428.5 C 517.833,429.167 517.833,429.167 516.5,428.5 Z"/></g>
<g><path style="opacity:0.004" fill="#34546f" d="M 518.5,429.5 C 519.251,428.427 520.251,428.26 521.5,429C 520.552,429.483 519.552,429.649 518.5,429.5 Z"/></g>
<g><path style="opacity:0.005" fill="#32536e" d="M 528.5,429.5 C 529.708,428.218 531.042,428.218 532.5,429.5C 531.443,429.906 530.109,429.906 528.5,429.5 Z"/></g>
<g><path style="opacity:0.004" fill="#31516d" d="M 536.5,429.5 C 536.897,428.475 537.563,428.308 538.5,429C 537.906,429.464 537.239,429.631 536.5,429.5 Z"/></g>
<g><path style="opacity:0.012" fill="#33546d" d="M 544.5,428.5 C 545.833,429.167 545.833,429.167 544.5,428.5 Z"/></g>
<g><path style="opacity:0.004" fill="#33556e" d="M 546.5,428.5 C 547.833,429.167 547.833,429.167 546.5,428.5 Z"/></g>
<g><path style="opacity:0.008" fill="#31516d" d="M 267.5,429.5 C 268.833,430.167 268.833,430.167 267.5,429.5 Z"/></g>
<g><path style="opacity:0.004" fill="#365570" d="M 482.5,430.5 C 482.897,429.475 483.563,429.308 484.5,430C 483.906,430.464 483.239,430.631 482.5,430.5 Z"/></g>
<g><path style="opacity:0.004" fill="#32506c" d="M 582.5,430.5 C 583.833,431.167 583.833,431.167 582.5,430.5 Z"/></g>
<g><path style="opacity:0.004" fill="#32516c" d="M 651.5,429.5 C 652.525,429.897 652.692,430.563 652,431.5C 651.536,430.906 651.369,430.239 651.5,429.5 Z"/></g>
<g><path style="opacity:0.937" fill="#092039" d="M 909.5,425.5 C 909.5,427.167 909.5,428.833 909.5,430.5C 909.675,432.621 909.341,434.621 908.5,436.5C 907.397,432.76 907.73,429.094 909.5,425.5 Z"/></g>
<g><path style="opacity:0.004" fill="#33526a" d="M 651.5,432.5 C 652.833,433.167 652.833,433.167 651.5,432.5 Z"/></g>
<g><path style="opacity:0.998" fill="#173e5f" d="M 687.5,356.5 C 686.662,356.842 686.328,357.508 686.5,358.5C 686.5,405.167 686.5,451.833 686.5,498.5C 676.167,498.5 665.833,498.5 655.5,498.5C 655.667,451.832 655.5,405.165 655,358.5C 654.5,405.499 654.333,452.499 654.5,499.5C 654.167,499.5 653.833,499.5 653.5,499.5C 653.5,452.5 653.5,405.5 653.5,358.5C 653.5,358.167 653.5,357.833 653.5,357.5C 638.245,356.501 622.245,356.168 605.5,356.5C 605.5,346.833 605.5,337.167 605.5,327.5C 649.5,327.5 693.5,327.5 737.5,327.5C 737.5,337.167 737.5,346.833 737.5,356.5C 720.833,356.5 704.167,356.5 687.5,356.5 Z"/></g>
<g><path style="opacity:0.004" fill="#32526e" d="M 267.5,437.5 C 268.833,438.167 268.833,438.167 267.5,437.5 Z"/></g>
<g><path style="opacity:0.004" fill="#33516c" d="M 651.5,437.5 C 652.525,437.897 652.692,438.563 652,439.5C 651.536,438.906 651.369,438.239 651.5,437.5 Z"/></g>
<g><path style="opacity:0.004" fill="#31526b" d="M 909.5,438.5 C 910.833,439.167 910.833,439.167 909.5,438.5 Z"/></g>
<g><path style="opacity:0.997" fill="#163250" d="M 160.5,358.5 C 162.495,404.488 163.162,450.821 162.5,497.5C 162.5,497.833 162.5,498.167 162.5,498.5C 161.833,498.5 161.5,498.833 161.5,499.5C 161.167,499.5 160.833,499.5 160.5,499.5C 159.17,452.598 159.17,405.598 160.5,358.5 Z"/></g>
<g><path style="opacity:0.95" fill="#031025" d="M 244.5,327.5 C 244.833,327.5 245.167,327.5 245.5,327.5C 245.5,337.5 245.5,347.5 245.5,357.5C 228.658,357.17 211.992,357.503 195.5,358.5C 195.741,406.212 195.741,453.212 195.5,499.5C 184.833,499.5 174.167,499.5 163.5,499.5C 163.167,499.5 162.833,499.5 162.5,499.5C 162.167,499.5 161.833,499.5 161.5,499.5C 161.5,498.833 161.833,498.5 162.5,498.5C 173.167,498.5 183.833,498.5 194.5,498.5C 194.5,451.833 194.5,405.167 194.5,358.5C 194.5,357.833 194.5,357.167 194.5,356.5C 211.167,356.5 227.833,356.5 244.5,356.5C 244.5,346.833 244.5,337.167 244.5,327.5 Z"/></g>
<g><path style="opacity:0.69" fill="#18354f" d="M 687.5,356.5 C 687.5,357.167 687.833,357.5 688.5,357.5C 688.5,357.833 688.5,358.167 688.5,358.5C 688.509,405.805 688.509,452.805 688.5,499.5C 688.167,499.5 687.833,499.5 687.5,499.5C 687.832,452.33 687.499,405.33 686.5,358.5C 686.328,357.508 686.662,356.842 687.5,356.5 Z"/></g>
<g><path style="opacity:0.008" fill="#37546d" d="M 651.5,443.5 C 652.833,444.167 652.833,444.167 651.5,443.5 Z"/></g>
<g><path style="opacity:0.004" fill="#32516b" d="M 379.5,445.5 C 380.833,446.167 380.833,446.167 379.5,445.5 Z"/></g>
<g><path style="opacity:0.006" fill="#33536e" d="M 651.5,445.5 C 652.525,445.897 652.692,446.563 652,447.5C 651.536,446.906 651.369,446.239 651.5,445.5 Z"/></g>
<g><path style="opacity:0.945" fill="#112740" d="M 907.5,440.5 C 905.428,449.306 901.761,457.306 896.5,464.5C 895.957,464.44 895.624,464.107 895.5,463.5C 900.69,455.452 904.523,446.785 907,437.5C 907.483,438.448 907.649,439.448 907.5,440.5 Z"/></g>
<g><path style="opacity:0.004" fill="#35536c" d="M 563.5,449.5 C 564.833,450.167 564.833,450.167 563.5,449.5 Z"/></g>
<g><path style="opacity:0.004" fill="#35546d" d="M 267.5,451.5 C 268.833,452.167 268.833,452.167 267.5,451.5 Z"/></g>
<g><path style="opacity:0.969" fill="#14283f" d="M 271.5,327.5 C 271.5,384.5 271.5,441.5 271.5,498.5C 282.346,498.828 293.013,498.494 303.5,497.5C 303.5,475.5 303.5,453.5 303.5,431.5C 303.833,431.5 304.167,431.5 304.5,431.5C 304.5,454.167 304.5,476.833 304.5,499.5C 293.167,499.5 281.833,499.5 270.5,499.5C 269.368,442.996 269.368,385.996 270.5,328.5C 270.5,327.833 270.833,327.5 271.5,327.5 Z"/></g>
<g><path style="opacity:0.004" fill="#32526a" d="M 379.5,451.5 C 380.833,452.167 380.833,452.167 379.5,451.5 Z"/></g>
<g><path style="opacity:0.004" fill="#34536d" d="M 267.5,453.5 C 268.525,453.897 268.692,454.563 268,455.5C 267.536,454.906 267.369,454.239 267.5,453.5 Z"/></g>
<g><path style="opacity:0.004" fill="#33506c" d="M 379.5,453.5 C 380.833,454.167 380.833,454.167 379.5,453.5 Z"/></g>
<g><path style="opacity:0.997" fill="#0c2d4d" d="M 271.5,327.5 C 271.833,327.5 272.167,327.5 272.5,327.5C 272.5,384.167 272.5,440.833 272.5,497.5C 280.5,497.5 288.5,497.5 296.5,497.5C 298.833,497.5 301.167,497.5 303.5,497.5C 293.013,498.494 282.346,498.828 271.5,498.5C 271.5,441.5 271.5,384.5 271.5,327.5 Z"/></g>
<g><path style="opacity:0.998" fill="#173e5f" d="M 834.5,326.5 C 836.415,326.216 838.081,326.549 839.5,327.5C 838.761,327.369 838.094,327.536 837.5,328C 843.43,329.984 849.43,331.318 855.5,332C 854.584,331.722 853.918,331.222 853.5,330.5C 854.5,330.5 855.5,330.5 856.5,330.5C 857.167,331.167 857.833,331.833 858.5,332.5C 857.761,332.369 857.094,332.536 856.5,333C 884.298,345.127 901.465,365.96 908,395.5C 908.49,394.207 908.657,392.873 908.5,391.5C 909.903,394.909 910.57,398.575 910.5,402.5C 909.508,409.982 909.175,417.648 909.5,425.5C 907.73,429.094 907.397,432.76 908.5,436.5C 908.768,438.099 908.434,439.432 907.5,440.5C 907.649,439.448 907.483,438.448 907,437.5C 904.523,446.785 900.69,455.452 895.5,463.5C 895.624,464.107 895.957,464.44 896.5,464.5C 896.068,465.71 895.401,466.71 894.5,467.5C 894.631,466.761 894.464,466.094 894,465.5C 878.601,485.784 858.101,496.451 832.5,497.5C 810.993,497.169 789.66,497.503 768.5,498.5C 766.167,498.5 763.833,498.5 761.5,498.5C 761.5,441.5 761.5,384.5 761.5,327.5C 786.006,327.831 810.339,327.498 834.5,326.5 Z M 831.5,358.5 C 832.5,358.5 833.5,358.5 834.5,358.5C 835.919,359.451 837.585,359.784 839.5,359.5C 844.14,361.268 848.473,363.602 852.5,366.5C 854.23,367.026 855.564,368.026 856.5,369.5C 855.287,370.497 855.454,371.497 857,372.5C 857.464,371.906 857.631,371.239 857.5,370.5C 858.5,370.833 859.167,371.5 859.5,372.5C 860.5,372.833 861.167,373.5 861.5,374.5C 864.091,375.524 864.924,377.191 864,379.5C 864.333,379.167 864.667,378.833 865,378.5C 869.755,384.344 872.589,391.011 873.5,398.5C 874.167,399.833 874.833,401.167 875.5,402.5C 875.5,403.167 875.5,403.833 875.5,404.5C 879.114,438.822 864.448,460.155 831.5,468.5C 830.5,468.5 829.5,468.5 828.5,468.5C 817.5,468.5 806.5,468.5 795.5,468.5C 795.5,431.833 795.5,395.167 795.5,358.5C 807.5,358.5 819.5,358.5 831.5,358.5 Z"/></g>
<g><path style="opacity:1" fill="#031025" d="M 876.5,399.5 C 877.403,407.458 877.736,415.458 877.5,423.5C 876.833,417.167 876.167,410.833 875.5,404.5C 875.5,403.833 875.5,403.167 875.5,402.5C 875.263,401.209 875.596,400.209 876.5,399.5 Z"/></g>
<g><path style="opacity:1" fill="#132b45" d="M 876.5,399.5 C 875.596,400.209 875.263,401.209 875.5,402.5C 874.833,401.167 874.167,399.833 873.5,398.5C 872.589,391.011 869.755,384.344 865,378.5C 864.667,378.833 864.333,379.167 864,379.5C 864.924,377.191 864.091,375.524 861.5,374.5C 861.167,373.5 860.5,372.833 859.5,372.5C 859.167,371.5 858.5,370.833 857.5,370.5C 857.5,369.833 857.167,369.5 856.5,369.5C 855.564,368.026 854.23,367.026 852.5,366.5C 848.473,363.602 844.14,361.268 839.5,359.5C 839.735,358.903 840.235,358.57 841,358.5C 860.518,365.518 872.352,379.185 876.5,399.5 Z"/></g>
<g><path style="opacity:0.004" fill="#304f6c" d="M 856.5,369.5 C 857.167,369.5 857.5,369.833 857.5,370.5C 857.631,371.239 857.464,371.906 857,372.5C 855.454,371.497 855.287,370.497 856.5,369.5 Z"/></g>
<g><path style="opacity:1" fill="#04162f" d="M 834.5,358.5 C 833.5,358.5 832.5,358.5 831.5,358.5C 820.007,357.669 808.341,357.169 796.5,357C 809.167,356.333 821.833,356.333 834.5,357C 838.449,357.807 838.449,358.307 834.5,358.5 Z"/></g>
<g><path style="opacity:0.012" fill="#3c556d" d="M 520.5,458.5 C 519.833,457.167 519.833,457.167 520.5,458.5 Z"/></g>
<g><path style="opacity:1" fill="#152d49" d="M 875.5,404.5 C 876.167,410.833 876.833,417.167 877.5,423.5C 873.566,448.098 859.566,463.431 835.5,469.5C 834.432,468.566 833.099,468.232 831.5,468.5C 864.448,460.155 879.114,438.822 875.5,404.5 Z"/></g>
<g><path style="opacity:0.004" fill="#3f5c70" d="M 520.5,458.5 C 520.833,458.5 521.167,458.5 521.5,458.5C 521.315,459.17 520.981,459.17 520.5,458.5 Z"/></g>
<g><path style="opacity:0.004" fill="#3b5770" d="M 542.5,459.5 C 543.833,460.167 543.833,460.167 542.5,459.5 Z"/></g>
<g><path style="opacity:0.004" fill="#39556d" d="M 651.5,459.5 C 652.833,460.167 652.833,460.167 651.5,459.5 Z"/></g>
<g><path style="opacity:0.004" fill="#36556d" d="M 267.5,461.5 C 268.833,462.167 268.833,462.167 267.5,461.5 Z"/></g>
<g><path style="opacity:0.004" fill="#34526c" d="M 380.5,462.5 C 379.833,461.167 379.833,461.167 380.5,462.5 Z"/></g>
<g><path style="opacity:0.969" fill="#03132a" d="M 828.5,468.5 C 829.5,468.5 830.5,468.5 831.5,468.5C 833.099,468.232 834.432,468.566 835.5,469.5C 821.859,470.594 808.192,470.76 794.5,470C 806.007,469.831 817.341,469.331 828.5,468.5 Z"/></g>
<g><path style="opacity:0.929" fill="#142a43" d="M 894.5,467.5 C 881.075,484.892 863.409,495.226 841.5,498.5C 838.287,498.81 835.287,498.477 832.5,497.5C 858.101,496.451 878.601,485.784 894,465.5C 894.464,466.094 894.631,466.761 894.5,467.5 Z"/></g>
<g><path style="opacity:0.004" fill="#3a576f" d="M 651.5,475.5 C 652.833,476.167 652.833,476.167 651.5,475.5 Z"/></g>
<g><path style="opacity:0.004" fill="#38526c" d="M 267.5,477.5 C 268.833,478.167 268.833,478.167 267.5,477.5 Z"/></g>
<g><path style="opacity:0.004" fill="#37526c" d="M 379.5,477.5 C 380.833,478.167 380.833,478.167 379.5,477.5 Z"/></g>
<g><path style="opacity:0.008" fill="#3a586e" d="M 651.5,477.5 C 652.833,478.167 652.833,478.167 651.5,477.5 Z"/></g>
<g><path style="opacity:0.652" fill="#1b354f" d="M 304.5,431.5 C 304.833,431.5 305.167,431.5 305.5,431.5C 305.545,454.286 305.545,476.952 305.5,499.5C 305.167,499.5 304.833,499.5 304.5,499.5C 304.5,476.833 304.5,454.167 304.5,431.5 Z"/></g>
<g><path style="opacity:0.992" fill="#0b233e" d="M 383.5,497.5 C 382.662,497.842 382.328,498.508 382.5,499.5C 382.167,499.5 381.833,499.5 381.5,499.5C 381.711,487.552 381.378,475.218 380.5,462.5C 381.363,450.854 381.696,439.188 381.5,427.5C 382.222,427.082 382.722,426.416 383,425.5C 383.5,449.498 383.667,473.498 383.5,497.5 Z"/></g>
<g><path style="opacity:0.004" fill="#3a5266" d="M 197.5,495.5 C 198.833,496.167 198.833,496.167 197.5,495.5 Z"/></g>
<g><path style="opacity:0.004" fill="#3b536a" d="M 197.5,496.5 C 196.833,497.167 196.833,497.167 197.5,496.5 Z"/></g>
<g><path style="opacity:0.004" fill="#3b5669" d="M 198.5,497.5 C 199.833,498.167 199.833,498.167 198.5,497.5 Z"/></g>
<g><path style="opacity:0.004" fill="#3e546c" d="M 267.5,497.5 C 268.833,498.167 268.833,498.167 267.5,497.5 Z"/></g>
<g><path style="opacity:0.012" fill="#445b71" d="M 651.5,497.5 C 652.833,498.167 652.833,498.167 651.5,497.5 Z"/></g>
<g><path style="opacity:0.99" fill="#163655" d="M 768.5,498.5 C 789.66,497.503 810.993,497.169 832.5,497.5C 835.287,498.477 838.287,498.81 841.5,498.5C 838.713,499.477 835.713,499.81 832.5,499.5C 832.167,499.5 831.833,499.5 831.5,499.5C 810.673,498.503 789.673,498.169 768.5,498.5 Z"/></g>
<g><path style="opacity:0.004" fill="#3b5469" d="M 196.5,498.5 C 197.833,499.167 197.833,499.167 196.5,498.5 Z"/></g>
<g><path style="opacity:1" fill="#020d22" d="M 416.5,499.5 C 405.167,499.5 393.833,499.5 382.5,499.5C 382.328,498.508 382.662,497.842 383.5,497.5C 393.319,498.494 403.319,498.827 413.5,498.5C 413.833,498.5 414.167,498.5 414.5,498.5C 415.268,497.737 415.768,496.737 416,495.5C 416.49,496.793 416.657,498.127 416.5,499.5 Z"/></g>
<g><path style="opacity:0.004" fill="#3c566c" d="M 160.5,499.5 C 160.833,499.5 161.167,499.5 161.5,499.5C 161.833,499.5 162.167,499.5 162.5,499.5C 161.305,503.286 160.638,503.286 160.5,499.5 Z"/></g>
<g><path style="opacity:0.045" fill="#3e5a72" d="M 163.5,499.5 C 174.167,499.5 184.833,499.5 195.5,499.5C 194.313,500.534 193.48,501.867 193,503.5C 191.933,502.809 190.766,502.309 189.5,502C 190.5,501.667 191.5,501.333 192.5,501C 188.515,500.236 184.682,500.736 181,502.5C 180.167,502.333 179.333,502.167 178.5,502C 179.696,501.346 179.696,500.846 178.5,500.5C 177.169,501.166 175.669,501.166 174,500.5C 173.167,500.667 172.333,500.833 171.5,501C 176.281,501.699 176.447,502.199 172,502.5C 168.976,501.685 166.143,500.685 163.5,499.5 Z"/></g>
<g><path style="opacity:0.035" fill="#445f76" d="M 270.5,499.5 C 281.833,499.5 293.167,499.5 304.5,499.5C 304.833,499.5 305.167,499.5 305.5,499.5C 303.981,500.378 303.147,501.378 303,502.5C 302.333,501.833 301.667,501.167 301,500.5C 300.619,501.482 299.786,502.148 298.5,502.5C 295.282,500.38 291.948,500.046 288.5,501.5C 286.167,500.167 283.833,500.167 281.5,501.5C 278.592,500.431 275.592,500.264 272.5,501C 273.696,501.654 273.696,502.154 272.5,502.5C 271.575,501.643 270.908,500.643 270.5,499.5 Z"/></g>
<g><path style="opacity:0.054" fill="#47627a" d="M 381.5,499.5 C 381.833,499.5 382.167,499.5 382.5,499.5C 393.833,499.5 405.167,499.5 416.5,499.5C 416.5,499.833 416.5,500.167 416.5,500.5C 414.164,502.391 411.498,502.891 408.5,502C 409.5,501.667 410.5,501.333 411.5,501C 409.521,500.316 407.854,500.816 406.5,502.5C 406.511,501.559 406.011,500.892 405,500.5C 403.278,500.611 403.112,501.111 404.5,502C 402.167,502.667 399.833,502.667 397.5,502C 397.833,501.667 398.167,501.333 398.5,501C 392.652,500.827 386.985,500.327 381.5,499.5 Z"/></g>
<g><path style="opacity:0.039" fill="#456179" d="M 653.5,499.5 C 653.833,499.5 654.167,499.5 654.5,499.5C 665.5,499.5 676.5,499.5 687.5,499.5C 687.833,499.5 688.167,499.5 688.5,499.5C 686.369,500.314 684.036,500.814 681.5,501C 687.864,501.981 687.531,502.481 680.5,502.5C 680.591,500.302 679.925,499.969 678.5,501.5C 675.04,500.826 671.54,500.493 668,500.5C 666.635,500.844 665.468,501.511 664.5,502.5C 663.304,502.154 663.304,501.654 664.5,501C 660.644,500.823 656.977,500.323 653.5,499.5 Z"/></g>
<g><path style="opacity:0.056" fill="#3e5c76" d="M 760.5,499.5 C 784.167,499.5 807.833,499.5 831.5,499.5C 831.833,499.5 832.167,499.5 832.5,499.5C 825.345,500.329 818.011,500.829 810.5,501C 811.5,501.333 812.5,501.667 813.5,502C 812.833,502.167 812.167,502.333 811.5,502.5C 807.097,499.941 802.763,499.941 798.5,502.5C 797.304,502.154 797.304,501.654 798.5,501C 796.251,500.137 794.418,500.637 793,502.5C 791.991,501.342 790.658,500.675 789,500.5C 787.615,500.514 786.449,500.848 785.5,501.5C 785.167,501.5 784.833,501.5 784.5,501.5C 781.451,502.403 776.451,502.403 769.5,501.5C 768.883,501.389 768.383,501.056 768,500.5C 767.581,501.672 766.915,502.672 766,503.5C 765.383,502.551 765.549,501.718 766.5,501C 764.866,500.506 763.199,500.34 761.5,500.5C 761.798,503.336 761.131,503.836 759.5,502C 760.252,501.329 760.586,500.496 760.5,499.5 Z"/></g>
<g><path style="opacity:0.008" fill="#495e71" d="M 416.5,500.5 C 417.833,501.167 417.833,501.167 416.5,500.5 Z"/></g>
<g><path style="opacity:0.004" fill="#3b4f69" d="M 166.5,501.5 C 167.833,502.167 167.833,502.167 166.5,501.5 Z"/></g>
<g><path style="opacity:0.004" fill="#39526a" d="M 186.5,501.5 C 187.833,502.167 187.833,502.167 186.5,501.5 Z"/></g>
<g><path style="opacity:0.012" fill="#3d566a" d="M 274.5,501.5 C 275.833,502.167 275.833,502.167 274.5,501.5 Z"/></g>
<g><path style="opacity:0.004" fill="#3f556d" d="M 277.5,501.5 C 278.833,502.167 278.833,502.167 277.5,501.5 Z"/></g>
<g><path style="opacity:0.004" fill="#3e576c" d="M 281.5,501.5 C 282.239,501.369 282.906,501.536 283.5,502C 282.563,502.692 281.897,502.525 281.5,501.5 Z"/></g>
<g><path style="opacity:0.004" fill="#40576d" d="M 288.5,501.5 C 287.833,502.167 287.833,502.167 288.5,501.5 Z"/></g>
<g><path style="opacity:0.004" fill="#40576d" d="M 291.5,501.5 C 292.833,502.167 292.833,502.167 291.5,501.5 Z"/></g>
<g><path style="opacity:0.004" fill="#435c71" d="M 387.5,501.5 C 388.833,502.167 388.833,502.167 387.5,501.5 Z"/></g>
<g><path style="opacity:0.004" fill="#425b72" d="M 391.5,502.5 C 391.897,501.475 392.563,501.308 393.5,502C 392.906,502.464 392.239,502.631 391.5,502.5 Z"/></g>
<g><path style="opacity:0.004" fill="#425c71" d="M 395.5,501.5 C 396.833,502.167 396.833,502.167 395.5,501.5 Z"/></g>
<g><path style="opacity:0.004" fill="#4a6171" d="M 418.5,501.5 C 419.833,502.167 419.833,502.167 418.5,501.5 Z"/></g>
<g><path style="opacity:0.008" fill="#466073" d="M 655.5,501.5 C 656.833,502.167 656.833,502.167 655.5,501.5 Z"/></g>
<g><path style="opacity:0.004" fill="#455d73" d="M 657.5,501.5 C 658.833,502.167 658.833,502.167 657.5,501.5 Z"/></g>
<g><path style="opacity:0.004" fill="#445e73" d="M 659.5,501.5 C 660.833,502.167 660.833,502.167 659.5,501.5 Z"/></g>
<g><path style="opacity:0.008" fill="#445c73" d="M 661.5,501.5 C 662.833,502.167 662.833,502.167 661.5,501.5 Z"/></g>
<g><path style="opacity:0.008" fill="#425b71" d="M 672.5,501.5 C 673.833,502.167 673.833,502.167 672.5,501.5 Z"/></g>
<g><path style="opacity:0.008" fill="#425a70" d="M 678.5,501.5 C 677.399,502.598 676.066,502.765 674.5,502C 675.793,501.51 677.127,501.343 678.5,501.5 Z"/></g>
<g><path style="opacity:0.004" fill="#3c556c" d="M 769.5,501.5 C 770.239,501.369 770.906,501.536 771.5,502C 770.563,502.692 769.897,502.525 769.5,501.5 Z"/></g>
<g><path style="opacity:0.004" fill="#3a566c" d="M 773.5,501.5 C 774.833,502.167 774.833,502.167 773.5,501.5 Z"/></g>
<g><path style="opacity:0.004" fill="#3b566d" d="M 784.5,501.5 C 783.833,502.167 783.833,502.167 784.5,501.5 Z"/></g>
<g><path style="opacity:0.004" fill="#3a556c" d="M 785.5,501.5 C 786.552,501.351 787.552,501.517 788.5,502C 787.251,502.74 786.251,502.573 785.5,501.5 Z"/></g>
<g><path style="opacity:0.004" fill="#3a556b" d="M 789.5,501.5 C 790.833,502.167 790.833,502.167 789.5,501.5 Z"/></g>
<g><path style="opacity:0.008" fill="#3b566b" d="M 794.5,501.5 C 795.833,502.167 795.833,502.167 794.5,501.5 Z"/></g>
<g><path style="opacity:0.004" fill="#38556c" d="M 802.5,502.5 C 802.897,501.475 803.563,501.308 804.5,502C 803.906,502.464 803.239,502.631 802.5,502.5 Z"/></g>
<g><path style="opacity:0.004" fill="#39546c" d="M 805.5,501.5 C 806.833,502.167 806.833,502.167 805.5,501.5 Z"/></g>
<g><path style="opacity:0.004" fill="#39566c" d="M 807.5,501.5 C 808.833,502.167 808.833,502.167 807.5,501.5 Z"/></g>
<g><path style="opacity:0.004" fill="#3a536b" d="M 814.5,501.5 C 815.833,502.167 815.833,502.167 814.5,501.5 Z"/></g>
<g><path style="opacity:0.004" fill="#43586d" d="M 379.5,502.5 C 380.833,503.167 380.833,503.167 379.5,502.5 Z"/></g>
<g><path style="opacity:0.004" fill="#445d72" d="M 680.5,502.5 C 679.833,503.167 679.833,503.167 680.5,502.5 Z"/></g>
<g><path style="opacity:0.995" fill="#778a99" d="M 570.5,561.5 C 570.631,560.761 570.464,560.094 570,559.5C 559.73,589.227 549.563,619.06 539.5,649C 539.57,649.765 539.903,650.265 540.5,650.5C 535.103,667.191 529.603,683.858 524,700.5C 523.167,702.667 521.667,704.167 519.5,705C 512.434,707.114 505.434,706.947 498.5,704.5C 497.738,703.372 497.071,702.205 496.5,701C 500.753,688.736 505.087,676.569 509.5,664.5C 511.049,663.436 512.215,661.436 513,658.5C 520.311,636.232 527.811,614.066 535.5,592C 535.43,591.235 535.097,590.735 534.5,590.5C 538.753,574.904 544.087,559.737 550.5,545C 557.46,543.084 564.46,543.084 571.5,545C 573.357,546.182 574.357,547.849 574.5,550C 573.633,554.106 572.3,557.939 570.5,561.5 Z"/></g>
<g><path style="opacity:0.004" fill="#7e909b" d="M 591.5,560.5 C 592.833,561.167 592.833,561.167 591.5,560.5 Z"/></g>
<g><path style="opacity:0.004" fill="#7f8f9a" d="M 586.5,561.5 C 587.833,562.167 587.833,562.167 586.5,561.5 Z"/></g>
<g><path style="opacity:0.004" fill="#808f9c" d="M 593.5,562.5 C 594.833,563.167 594.833,563.167 593.5,562.5 Z"/></g>
<g><path style="opacity:0.995" fill="#778a9a" d="M 482.5,576.5 C 483.355,577.531 484.022,578.697 484.5,580C 483.224,582.281 481.557,584.281 479.5,586C 464.977,597.698 450.644,609.531 436.5,621.5C 434.091,622.701 432.091,624.367 430.5,626.5C 429.226,627.189 429.226,628.023 430.5,629C 446.391,642.526 462.558,655.692 479,668.5C 480.394,673.428 479.061,677.428 475,680.5C 474.308,681.437 474.475,682.103 475.5,682.5C 473.721,684.546 472.054,686.713 470.5,689C 468.455,689.49 466.455,689.323 464.5,688.5C 452.459,677.79 440.126,667.457 427.5,657.5C 428.239,657.631 428.906,657.464 429.5,657C 419.133,648.058 408.633,639.225 398,630.5C 397.536,631.094 397.369,631.761 397.5,632.5C 395.188,630.854 393.188,628.854 391.5,626.5C 391.994,624.974 392.661,623.641 393.5,622.5C 393.897,623.525 394.563,623.692 395.5,623C 419.167,603.5 442.833,584 466.5,564.5C 466.376,563.893 466.043,563.56 465.5,563.5C 466.799,561.901 468.465,561.401 470.5,562C 473.987,567.315 477.987,572.148 482.5,576.5 Z"/></g>
<g><path style="opacity:0.995" fill="#788b9b" d="M 613.5,670.5 C 613.167,671.5 612.5,672.167 611.5,672.5C 611.103,671.475 610.437,671.308 609.5,672C 602.897,677.779 595.897,682.946 588.5,687.5C 583.669,683.565 579.502,678.898 576,673.5C 575.219,672.056 575.386,670.723 576.5,669.5C 583.543,663.122 590.876,657.122 598.5,651.5C 599.773,650.743 599.773,650.077 598.5,649.5C 598.833,648.5 599.5,647.833 600.5,647.5C 600.369,648.239 600.536,648.906 601,649.5C 609.891,641.641 619.058,634.141 628.5,627C 627.906,626.536 627.239,626.369 626.5,626.5C 625.833,625.167 625.167,623.833 624.5,622.5C 625.15,622.804 625.817,623.137 626.5,623.5C 612.966,611.192 598.633,599.025 583.5,587C 580.898,584.571 578.565,582.071 576.5,579.5C 577.864,577.809 579.197,576.142 580.5,574.5C 580.369,575.239 580.536,575.906 581,576.5C 583.248,573.672 585.248,570.672 587,567.5C 588.113,565.671 589.613,564.837 591.5,565C 615.967,584.139 639.8,603.972 663,624.5C 663.436,626.936 662.603,628.936 660.5,630.5C 644.354,643.478 628.354,656.644 612.5,670C 612.728,670.399 613.062,670.565 613.5,670.5 Z"/></g>
<g><path style="opacity:0.004" fill="#82939d" d="M 582.5,570.5 C 581.833,569.167 581.833,569.167 582.5,570.5 Z"/></g>
<g><path style="opacity:0.012" fill="#8394a0" d="M 448.5,576.5 C 447.833,575.167 447.833,575.167 448.5,576.5 Z"/></g>
<g><path style="opacity:0.016" fill="#7e919b" d="M 482.5,575.5 C 483.833,576.167 483.833,576.167 482.5,575.5 Z"/></g>
<g><path style="opacity:0.004" fill="#808f9a" d="M 441.5,576.5 C 442.833,577.167 442.833,577.167 441.5,576.5 Z"/></g>
<g><path style="opacity:0.004" fill="#81909d" d="M 484.5,576.5 C 485.833,577.167 485.833,577.167 484.5,576.5 Z"/></g>
<g><path style="opacity:1" fill="#6e7e8d" d="M 465.5,563.5 C 466.043,563.56 466.376,563.893 466.5,564.5C 442.833,584 419.167,603.5 395.5,623C 394.563,623.692 393.897,623.525 393.5,622.5C 398.167,618.167 402.833,613.833 407.5,609.5C 411.463,606.871 415.129,603.871 418.5,600.5C 428.813,592.85 438.813,584.85 448.5,576.5C 454.347,572.409 460.013,568.076 465.5,563.5 Z"/></g>
<g><path style="opacity:0.004" fill="#80929d" d="M 418.5,600.5 C 417.833,599.167 417.833,599.167 418.5,600.5 Z"/></g>
<g><path style="opacity:0.988" fill="#6f7f8d" d="M 576.5,579.5 C 578.565,582.071 580.898,584.571 583.5,587C 598.633,599.025 612.966,611.192 626.5,623.5C 625.817,623.137 625.15,622.804 624.5,622.5C 608.088,609.533 591.921,596.2 576,582.5C 575.53,581.423 575.697,580.423 576.5,579.5 Z"/></g>
<g><path style="opacity:0.004" fill="#7e8e98" d="M 407.5,609.5 C 406.833,608.167 406.833,608.167 407.5,609.5 Z"/></g>
<g><path style="opacity:0.004" fill="#8696a4" d="M 554.5,612.5 C 555.833,613.167 555.833,613.167 554.5,612.5 Z"/></g>
<g><path style="opacity:1" fill="#6f7f8d" d="M 534.5,590.5 C 535.097,590.735 535.43,591.235 535.5,592C 527.811,614.066 520.311,636.232 513,658.5C 512.215,661.436 511.049,663.436 509.5,664.5C 517.452,639.644 525.785,614.978 534.5,590.5 Z"/></g>
<g><path style="opacity:0.004" fill="#8696a2" d="M 615.5,617.5 C 616.833,618.167 616.833,618.167 615.5,617.5 Z"/></g>
<g><path style="opacity:0.004" fill="#8394a0" d="M 436.5,621.5 C 437.833,622.167 437.833,622.167 436.5,621.5 Z"/></g>
<g><path style="opacity:0.988" fill="#6f7f8e" d="M 570.5,561.5 C 560.897,591.309 550.897,620.975 540.5,650.5C 539.903,650.265 539.57,649.765 539.5,649C 549.563,619.06 559.73,589.227 570,559.5C 570.464,560.094 570.631,560.761 570.5,561.5 Z"/></g>
<g><path style="opacity:0.004" fill="#8697a5" d="M 520.5,623.5 C 521.833,624.167 521.833,624.167 520.5,623.5 Z"/></g>
<g><path style="opacity:0.004" fill="#8593a2" d="M 436.5,624.5 C 437.833,625.167 437.833,625.167 436.5,624.5 Z"/></g>
<g><path style="opacity:0.004" fill="#8295a2" d="M 625.5,626.5 C 624.833,625.167 624.833,625.167 625.5,626.5 Z"/></g>
<g><path style="opacity:0.004" fill="#7f8f9b" d="M 399.5,636.5 C 400.833,637.167 400.833,637.167 399.5,636.5 Z"/></g>
<g><path style="opacity:1" fill="#6d7d8d" d="M 625.5,626.5 C 625.833,626.5 626.167,626.5 626.5,626.5C 627.239,626.369 627.906,626.536 628.5,627C 619.058,634.141 609.891,641.641 601,649.5C 600.536,648.906 600.369,648.239 600.5,647.5C 609.151,640.846 617.484,633.846 625.5,626.5 Z"/></g>
<g><path style="opacity:0.984" fill="#71818f" d="M 430.5,626.5 C 448.653,641.086 466.653,655.92 484.5,671C 482.018,675.307 479.018,679.14 475.5,682.5C 474.475,682.103 474.308,681.437 475,680.5C 479.061,677.428 480.394,673.428 479,668.5C 462.558,655.692 446.391,642.526 430.5,629C 429.226,628.023 429.226,627.189 430.5,626.5 Z"/></g>
<g><path style="opacity:0.008" fill="#80909a" d="M 649.5,642.5 C 650.833,643.167 650.833,643.167 649.5,642.5 Z"/></g>
<g><path style="opacity:0.008" fill="#808f9d" d="M 408.5,643.5 C 409.833,644.167 409.833,644.167 408.5,643.5 Z"/></g>
<g><path style="opacity:0.992" fill="#6f7e8d" d="M 593.5,563.5 C 614.977,581.469 636.644,599.302 658.5,617C 661.78,619.108 664.113,621.941 665.5,625.5C 665.06,628.214 663.726,630.38 661.5,632C 646.977,643.698 632.644,655.531 618.5,667.5C 616.999,668.752 615.332,669.752 613.5,670.5C 613.062,670.565 612.728,670.399 612.5,670C 628.354,656.644 644.354,643.478 660.5,630.5C 662.603,628.936 663.436,626.936 663,624.5C 639.8,603.972 615.967,584.139 591.5,565C 589.613,564.837 588.113,565.671 587,567.5C 585.248,570.672 583.248,573.672 581,576.5C 580.536,575.906 580.369,575.239 580.5,574.5C 581.6,573.395 582.267,572.062 582.5,570.5C 584.982,567.571 587.482,564.571 590,561.5C 591.113,562.305 592.279,562.972 593.5,563.5 Z"/></g>
<g><path style="opacity:0.004" fill="#8797a2" d="M 600.5,644.5 C 601.833,645.167 601.833,645.167 600.5,644.5 Z"/></g>
<g><path style="opacity:0.004" fill="#8395a0" d="M 594.5,648.5 C 595.833,649.167 595.833,649.167 594.5,648.5 Z"/></g>
<g><path style="opacity:0.004" fill="#7f909b" d="M 416.5,650.5 C 415.833,649.167 415.833,649.167 416.5,650.5 Z"/></g>
<g><path style="opacity:0.004" fill="#81919b" d="M 416.5,650.5 C 417.167,650.5 417.5,650.833 417.5,651.5C 417.167,651.167 416.833,650.833 416.5,650.5 Z"/></g>
<g><path style="opacity:0.004" fill="#8899a4" d="M 511.5,650.5 C 512.833,651.167 512.833,651.167 511.5,650.5 Z"/></g>
<g><path style="opacity:0.004" fill="#808f9a" d="M 417.5,651.5 C 418.833,652.167 418.833,652.167 417.5,651.5 Z"/></g>
<g><path style="opacity:0.965" fill="#6e7d8c" d="M 427.5,657.5 C 417.5,649.167 407.5,640.833 397.5,632.5C 397.369,631.761 397.536,631.094 398,630.5C 408.633,639.225 419.133,648.058 429.5,657C 428.906,657.464 428.239,657.631 427.5,657.5 Z"/></g>
<g><path style="opacity:0.004" fill="#80909a" d="M 417.5,652.5 C 416.833,653.167 416.833,653.167 417.5,652.5 Z"/></g>
<g><path style="opacity:0.008" fill="#8496a3" d="M 540.5,654.5 C 541.833,655.167 541.833,655.167 540.5,654.5 Z"/></g>
<g><path style="opacity:0.922" fill="#6f7e8d" d="M 598.5,649.5 C 599.773,650.077 599.773,650.743 598.5,651.5C 590.876,657.122 583.543,663.122 576.5,669.5C 575.386,670.723 575.219,672.056 576,673.5C 579.502,678.898 583.669,683.565 588.5,687.5C 595.897,682.946 602.897,677.779 609.5,672C 610.437,671.308 611.103,671.475 611.5,672.5C 605.731,677.094 600.064,681.927 594.5,687C 591.722,689.258 588.722,689.758 585.5,688.5C 580.801,682.934 576.468,677.101 572.5,671C 580.645,663.109 589.311,655.943 598.5,649.5 Z"/></g>
<g><path style="opacity:0.004" fill="#80919c" d="M 618.5,667.5 C 619.833,668.167 619.833,668.167 618.5,667.5 Z"/></g>
<g><path style="opacity:0.004" fill="#8593a0" d="M 484.5,672.5 C 485.833,673.167 485.833,673.167 484.5,672.5 Z"/></g>
<g><path style="opacity:0.004" fill="#83919d" d="M 464.5,688.5 C 464.5,688.833 464.5,689.167 464.5,689.5C 463.83,689.019 463.83,688.685 464.5,688.5 Z"/></g>
<g><path style="opacity:0.008" fill="#808f99" d="M 464.5,689.5 C 465.833,690.167 465.833,690.167 464.5,689.5 Z"/></g>
<g><path style="opacity:0.004" fill="#80929b" d="M 495.5,702.5 C 496.833,703.167 496.833,703.167 495.5,702.5 Z"/></g>
<g><path style="opacity:0.012" fill="#808f99" d="M 513.5,707.5 C 514.833,708.167 514.833,708.167 513.5,707.5 Z"/></g>
<g><path style="opacity:0.004" fill="#7d8e97" d="M 511.5,708.5 C 512.833,709.167 512.833,709.167 511.5,708.5 Z"/></g>
<g><path style="opacity:0.004" fill="#454746" d="M 307.5,933.5 C 308.833,934.167 308.833,934.167 307.5,933.5 Z"/></g>
</svg>
