<?xml version="1.0" encoding="utf-8" ?>
<svg xmlns="http://www.w3.org/2000/svg" xmlns:xlink="http://www.w3.org/1999/xlink" width="1024" height="1024">
	<path fill="#E4E4E4" d="M0 0L1024 0L1024 1024L0 1024L0 0Z"/>
	<path fill="#313335" d="M665.559 520.189C684.677 517.645 705.132 523.57 720.851 534.365C738.1 546.113 749.932 564.274 753.708 584.799C758.065 608.473 752.491 630.5 738.927 650.101C743.525 651.249 747.129 652.69 750.764 655.819C760.283 664.012 769.081 673.418 778.088 682.186C784.686 688.608 796.335 698.414 801.138 705.662C802.454 707.648 802.908 710.284 803.031 712.624C803.26 716.97 801.866 721.313 798.849 724.493C795.591 727.925 791.483 730.146 786.676 730.126C783.915 730.112 781.205 729.387 778.806 728.019C772.171 724.287 761.546 712.227 755.549 706.317C747.46 698.322 730.544 684.02 725.185 675.05C723.586 672.375 722.869 669.666 722.171 666.672C710.945 674.153 699.715 679.46 686.232 681.31C664.547 684.499 642.499 678.716 625.171 665.294C608.2 652.308 597.136 633.068 594.446 611.869C591.573 589.508 597.34 567.944 611.21 550.163C624.635 532.953 644.054 522.816 665.559 520.189Z"/>
	<path fill="#E4E4E4" d="M670.594 543.39C702.247 541.294 729.642 565.173 731.886 596.816C734.131 628.459 710.38 655.965 678.748 658.358C646.906 660.766 619.176 636.823 616.917 604.97C614.658 573.117 638.731 545.499 670.594 543.39Z"/>
	<path fill="#313335" d="M533.904 571.052L563.001 571.051L563.022 722.912C553.771 722.967 544.519 722.943 535.268 722.842L535.116 708.304C531.477 713.271 527.659 717.346 522.321 720.526C511.617 726.903 499.611 727.125 487.787 724.2C481.117 722.081 475.075 718.565 470.277 713.433C457.843 700.133 455.687 679.243 456.441 661.908C457.122 646.244 461.13 628.514 473.274 617.599C481.617 610.1 493.042 606.608 504.164 607.255C516.073 607.947 526.058 613.402 533.905 622.206L533.904 571.052Z"/>
	<path fill="#E4E4E4" d="M509.53 631.176C515.291 630.623 521.26 631.836 525.944 635.358C530.615 638.88 533.725 644.089 534.609 649.872C535.288 654.251 535.078 658.82 535.062 663.239C535.025 673.919 535.499 685.067 528.577 694C524.582 699.155 519.502 701.37 513.163 702.101C507.351 702.169 502.314 701.272 497.59 697.658C491.137 692.72 487.947 684.566 486.82 676.747C485.137 665.071 485.824 649.89 493.345 640.155C497.514 634.76 502.869 631.997 509.53 631.176Z"/>
	<path fill="#313335" d="M460.652 391.237C471.103 391.155 481.555 391.177 492.006 391.303L492.096 448.53C493.635 446.27 495.328 444.029 497.258 442.084C505.038 434.243 515.897 430.252 526.862 430.213C537.008 430.177 547.599 433.324 554.859 440.694C559.647 445.554 562.536 451.832 564.08 458.415C567.358 472.394 566.244 487.823 566.243 502.11L566.228 552.532C555.83 552.767 545.393 552.65 534.995 552.548L534.972 505.25C534.91 495.923 536.393 478.966 534.206 470.525C533.421 467.492 531.988 464.688 529.777 462.445C526.621 459.19 522.288 457.342 517.754 457.318C510.602 457.23 503.554 459.211 498.349 464.346C495.098 467.554 493.201 471.366 492.263 475.802C490.375 484.73 491.314 495.04 491.329 504.165C491.446 520.235 491.42 536.305 491.248 552.375L459.955 552.331C459.541 518.824 459.884 485.271 459.857 451.759L459.816 412.119C459.807 406.258 459.486 400.266 459.723 394.423C459.782 392.974 459.653 392.285 460.652 391.237Z"/>
	<path fill="#313335" d="M315.917 414.886L316.565 415.077C318.262 418.487 317.29 441.152 317.261 446.779C310.299 452.722 301.187 457.531 293.459 462.498C275.395 474.108 257.066 485.456 239.291 497.495C257.094 509.814 275.888 521.077 294.178 532.668C301.761 537.473 309.728 542.057 316.956 547.374C317.607 558.432 317.08 569.843 316.96 580.93C310.19 577.312 303.758 572.748 297.303 568.585L235.59 528.626C225.588 522.159 215.109 515.977 205.53 508.928C205.427 501.421 205.43 493.912 205.537 486.405C209.647 482.827 214.938 479.94 219.531 477.002L244.13 461.248C268.067 445.87 291.655 429.729 315.917 414.886Z"/>
	<path fill="#313335" d="M384.294 400.992L415.024 400.992L415.05 433.017L441.527 433.043L441.509 455.972L415.108 455.976L415.117 498.943C415.118 506.682 414.075 516.234 415.905 523.733C416.578 526.486 417.353 528.749 419.919 530.203C426.613 533.997 435.467 531.399 442.325 529.465C442.542 533.994 442.406 538.588 442.425 543.125L442.441 551.584C436.473 553.365 430.305 554.388 424.081 554.627C414.057 555.068 400.366 554.505 392.661 547.106C389.223 543.804 387.3 539.426 386.293 534.831C383.964 524.193 384.881 512.228 384.891 501.36L384.938 455.76C379.635 455.655 374.31 455.739 369.004 455.738L369.011 433.273L384.236 433.271C384.184 422.511 384.204 411.751 384.294 400.992Z"/>
	<path fill="#313335" d="M394.025 578.049L424.048 578.033L424.053 609.581L449.11 609.664C449.248 617.101 449.289 624.54 449.232 631.979L423.559 632.001L423.501 670.713C423.496 677.555 422.641 685.699 424.166 692.384C424.741 694.905 425.774 698.027 428.163 699.384C434.847 703.179 443.132 700.639 449.984 698.774L450.011 710.888L450.037 720.771C443.32 722.93 436.648 723.967 429.589 724.047C420.322 724.152 408.533 722.987 401.652 716.039C398.304 712.659 396.631 707.934 395.724 703.345C393.8 693.617 394.533 683.043 394.538 673.167L394.59 632.021L378.252 631.996C378.062 624.548 378.21 617.065 378.212 609.613L393.992 609.615C393.944 599.093 393.955 588.571 394.025 578.049Z"/>
	<path fill="#313335" d="M676.066 415.089C679.627 415.825 776.88 478.224 788.502 485.99C788.648 493.666 788.651 501.344 788.512 509.021C777.241 517.685 761.432 526.72 749.138 534.595L742.243 539.032C735.185 531.482 727.837 525.661 718.881 520.503L754.167 497.615L702.776 464.961C693.959 459.375 684.192 454.078 676.029 447.614C675.786 436.795 675.918 425.909 676.066 415.089Z"/>
</svg>
